<?xml version="1.0" encoding="utf-8"?>
<!-- Generator: Adobe Illustrator 24.1.3, SVG Export Plug-In . SVG Version: 6.00 Build 0)  -->
<svg version="1.1" id="Capa_1" xmlns="http://www.w3.org/2000/svg" xmlns:xlink="http://www.w3.org/1999/xlink" x="0px" y="0px"
	 viewBox="0 0 231.4 168" style="enable-background:new 0 0 231.4 168;" xml:space="preserve">
<style type="text/css">
	.st0{enable-background:new    ;}
	.st1{fill:#FF7A00;}
	.st2{fill:#FFFDFE;}
</style>
<g id="black">
	<rect width="231.4" height="168"/>
</g>
<g id="Capa_1_1_">
	<g id="XMLID_34_">
		<g id="XMLID_616_">
			<g class="st0">
				<path class="st1" d="M61.8,33.8c0,5.6-1.2,10.4-3.5,14.4s-5.5,6.9-9.6,8.9c2.5,3.2,4.6,6.7,6.5,10.6c1.8,3.9,3.6,7.8,5.3,11.6
					c0.6,1.3,1.3,2.7,2.2,4.3c0.9,1.6,2,2.9,3.2,3.9c-1.2,0.4-2.6,0.7-4.1,1.1c-1.5,0.3-3.1,0.6-4.7,0.9c-1.6,0.2-3.3,0.4-4.9,0.5
					c-1.7,0.1-3.2,0.2-4.6,0.2c-1.2-2.7-2.3-5.5-3.4-8.2c-1.1-2.7-2.1-5.2-3.1-7.6S39,69.9,38,68s-2.1-3.5-3.1-4.7
					c-0.1,3.7-0.1,6.9-0.1,9.6c0,2.7,0.2,5,0.4,7c0.2,1.9,0.5,3.6,1,5c0.4,1.4,1,2.7,1.6,3.8c-1.3,0.4-2.9,0.7-4.6,0.9
					c-1.7,0.2-3.4,0.3-5.2,0.3c-1.8,0-3.5-0.1-5.3-0.3c-1.8-0.2-3.4-0.5-5-1c0.6-1.5,1.1-2.8,1.3-3.9c0.2-1.1,0.3-2.3,0.3-3.5
					C19,71,19,60.9,19.2,50.7c0.2-10.1,0.5-20.5,0.7-31.3c-0.1-1.3-0.5-2.8-1.1-4.4c-0.6-1.7-1.2-3.2-2-4.4c2.3-0.8,5-1.3,8.1-1.8
					c3.1-0.4,6.6-0.6,10.4-0.6c9,0,15.6,2,20,6C59.6,18.2,61.8,24.8,61.8,33.8z M35.2,21.6c-0.2,5.3-0.4,10.2-0.4,14.5
					c-0.1,4.3-0.1,8.6-0.1,12.8c1.9-0.4,3.6-1.1,5.1-2.2c1.5-1.1,2.7-2.4,3.8-4c1-1.6,1.8-3.3,2.3-5.1s0.8-3.6,0.7-5.5
					c-0.1-3.6-1.2-6.4-3.1-8.2C41.5,22.1,38.7,21.3,35.2,21.6z"/>
				<path class="st1" d="M93.6,6.3c0.4,0.4,0.7,0.9,1,1.5c4.1,0.1,7.6,1.1,10.6,3.1s5.4,4.7,7.4,8.2c1.9,3.5,3.4,7.6,4.3,12.5
					s1.4,10.2,1.4,16c0,14.2-2.3,25.1-6.8,32.6s-10.9,11.3-19.2,11.3c-4.5,0-8.2-1-11.3-3.1c-3.1-2.1-5.6-5-7.6-8.7
					c-1.9-3.7-3.4-8.1-4.3-13.1s-1.4-10.4-1.4-16.3c0-7.1,0.6-13.4,1.9-18.8c1.2-5.4,3-9.9,5.3-13.6s5-6.5,8.2-8.4
					C86.2,7.5,89.7,6.5,93.6,6.3z M101,48c0-3.5-0.1-6.8-0.3-10c-0.2-3.2-0.6-5.9-1.2-8.4c-0.6-2.4-1.3-4.4-2.3-5.8
					c-1-1.4-2.2-2.2-3.7-2.3c-1.6,0.2-3,1.1-4.1,3c-1.1,1.8-2,4.1-2.6,7c-0.7,2.8-1.2,5.9-1.5,9.4s-0.5,6.8-0.5,10
					c0,3.4,0.1,6.7,0.4,9.9c0.2,3.2,0.7,6,1.3,8.5c0.6,2.5,1.4,4.5,2.4,6s2.2,2.3,3.7,2.3c1.6,0,2.9-0.8,3.9-2.5
					c1.1-1.7,1.9-3.9,2.6-6.7c0.7-2.8,1.1-5.9,1.4-9.5C100.9,55.3,101,51.7,101,48z"/>
				<path class="st1" d="M164.8,62.2c0.3,1.7,0.5,3.5,0.8,5.5c0.2,2,0.5,4,0.7,6.1s0.4,4.2,0.5,6.3c0.1,2.1,0.2,4,0.2,5.9
					c-1.5,0.5-2.9,1-4.1,1.5c-1.3,0.6-2.6,1.1-3.9,1.7c-1.3,0.5-2.8,1-4.3,1.3c-1.6,0.3-3.4,0.5-5.4,0.5c-4.7,0-8.7-1.1-11.8-3.4
					c-3.1-2.2-5.6-5.2-7.4-8.8c-1.8-3.6-3.1-7.8-3.9-12.5c-0.7-4.7-1.1-9.6-1.1-14.6s0.3-10.2,1-15.4s1.9-10,3.8-14.3
					c1.8-4.3,4.4-7.7,7.6-10.4c3.2-2.7,7.5-4,12.7-4c2.7,0,4.9,0.2,6.7,0.6c1.8,0.4,3.3,1,4.6,1.7s2.4,1.5,3.4,2.3
					c1,0.9,2,1.8,3.1,2.7c-0.4,3.2-1,6.9-2.1,11c-1,4.1-2.1,8.4-3.1,12.7c-1-3.3-2-6.1-3-8.2s-2-3.8-2.9-5c-1-1.2-1.9-2-2.8-2.5
					c-0.9-0.4-1.8-0.6-2.6-0.5c-1.8,0.2-3.4,1.3-4.6,3.2c-1.2,1.9-2.2,4.3-3,7.3s-1.3,6.4-1.6,10.2s-0.5,7.7-0.5,11.7
					c0,3.2,0.2,6.2,0.6,8.9c0.4,2.7,1.1,5.1,1.9,7.1c0.8,2,1.9,3.6,3.1,4.7c1.2,1.1,2.7,1.7,4.3,1.7c1.7,0,3.2-0.3,4.4-1
					c1.2-0.6,2.3-1.6,3.3-2.9s1.9-2.8,2.7-4.6C163.1,66.8,163.9,64.7,164.8,62.2z"/>
				<path class="st1" d="M172.3,89.3c0.9-1.4,1.5-2.9,1.7-4.6s0.4-3.2,0.4-4.4c0-4.7,0-9.4,0-14.1s0-9.4,0.1-14.3c0-2.3,0-4.8,0-7.4
					c0-2.7,0-5.4,0.1-8.1c0-2.7,0.1-5.5,0.1-8.2s0-5.4,0-7.9c0-2-0.1-3.9-0.3-5.7s-0.7-3.5-1.5-5c3.1-0.5,6.4-0.9,9.9-1
					s7,0.3,10.7,1.3c-0.8,1.3-1.4,2.6-1.8,3.9c-0.4,1.3-0.5,2.6-0.5,3.8c-0.1,1.8-0.1,3.4-0.2,4.8c0,1.5-0.1,2.9-0.1,4.3
					s-0.1,2.8-0.1,4.3s-0.1,3.1-0.1,4.8c1.8-3.3,3.8-6.7,5.8-10.2s3.9-6.6,5.6-9.3c0.6-1.1,1.1-2.2,1.5-3.4s0.5-2.6,0.4-4.3
					c3-0.2,5.9,0,8.9,0.3c2.9,0.4,5.7,1,8.4,1.8c-1.1,1.3-2.4,3.1-4,5.4s-3.3,4.9-5,7.8c-1.8,2.9-3.6,5.8-5.4,9
					c-1.8,3.1-3.5,6.1-5,8.9c2.5,5,5.2,10.9,8.1,17.5c2.9,6.7,5.3,13.4,7.4,20.4c0.4,1.1,0.9,2.2,1.6,3.3c0.7,1.1,1.5,2.2,2.4,3.1
					c-3,1.3-6.1,2.2-9.3,2.8c-3.3,0.6-6.5,0.8-9.6,0.7c-0.8-2.7-1.6-5.6-2.6-8.7c-1-3-1.9-6-2.9-8.9s-1.9-5.6-2.9-8.1
					s-1.8-4.6-2.6-6.3l-1.2,3.1c0,1.3,0,2.9,0,4.9c0,2,0,4,0.1,6c0,2,0.1,3.9,0.1,5.6s0.1,2.9,0.1,3.7c0,0.8,0.2,1.9,0.6,3.3
					c0.4,1.3,1.1,2.8,2.1,4.3c-3.1,0.4-6.5,0.7-10.3,0.9C179,89.7,175.5,89.6,172.3,89.3z"/>
			</g>
		</g>
		<g id="XMLID_214_">
			<g class="st0">
				<path class="st2" d="M4.7,157.3c0.5-0.7,1.1-1.6,1.6-2.8s0.9-2.3,1.1-3.3c0.7-3.5,1.5-7.2,2.4-11.3s1.9-8.2,2.9-12.3
					c1-4.2,2.1-8.3,3.1-12.3c1.1-4.1,2.1-7.9,3-11.4c0.3-1.6,0.5-3,0.5-4.3s-0.5-2.7-1.5-4.1c1.9-0.2,4-0.4,6.3-0.5s4.7-0.2,7.2-0.2
					c1.8,0,3.8,0.1,6,0.2s4.3,0.4,6.5,0.9c-1,0.9-1.7,2-2,3.3s-0.4,2.4-0.2,3.2c1.5,7.5,3.1,15.5,4.8,23.9s3.7,16.6,5.8,24.7
					c0.3,1.1,0.8,2.3,1.4,3.5c0.7,1.3,1.6,2.5,2.9,3.5c-3,0.3-6.2,0.5-9.7,0.7s-6.9,0.3-10.1,0.3c0.4-1,0.5-2.2,0.4-3.4
					c-0.1-1.3-0.3-2.5-0.6-3.7l-1.9-8.4c-2,0-4,0-5.8,0s-3.9,0.1-6,0.1c-0.3,1.4-0.7,3.1-1.2,4.8c-0.4,1.8-0.7,3.5-0.7,5.1
					c0,0.7,0.1,1.4,0.3,2.2c0.2,0.8,0.6,1.7,1.1,2.5c-0.7,0.1-1.7,0.2-3,0.3s-2.7,0.1-4.4,0c-1.6,0-3.3-0.1-5.1-0.4
					C8.1,158.1,6.3,157.7,4.7,157.3z M32.7,133.3c-0.3-1.5-0.5-3.2-0.8-5.1c-0.3-1.9-0.6-3.9-0.9-6s-0.6-4.1-0.9-6.2s-0.5-4-0.8-5.8
					c-0.8,3.5-1.6,7.4-2.4,11.5c-0.8,4.2-1.5,8-2.1,11.5C27.2,133.2,29.9,133.2,32.7,133.3z"/>
				<path class="st2" d="M101.5,114.9c0,4.4-1.1,8.2-3.4,11.3c-2.3,3.1-5.4,5.4-9.3,7c2.4,2.5,4.5,5.3,6.2,8.4
					c1.8,3.1,3.5,6.1,5.1,9.2c0.5,1,1.2,2.2,2.1,3.4c0.9,1.3,1.9,2.3,3.1,3.1c-1.2,0.3-2.5,0.6-3.9,0.9c-1.5,0.3-3,0.5-4.6,0.7
					s-3.2,0.3-4.8,0.4c-1.6,0.1-3.1,0.1-4.5,0.1c-1.2-2.2-2.3-4.3-3.3-6.4c-1-2.1-2-4.1-3-6s-2-3.5-3-5.1c-1-1.5-2-2.8-3-3.7
					c-0.1,2.9-0.1,5.5-0.1,7.6s0.2,4,0.4,5.5c0.2,1.5,0.5,2.8,0.9,4c0.4,1.1,0.9,2.1,1.5,3c-1.3,0.3-2.8,0.5-4.4,0.7s-3.3,0.3-5,0.3
					s-3.4-0.1-5.1-0.2c-1.7-0.1-3.3-0.4-4.8-0.8c0.6-1.2,1-2.2,1.3-3.1c0.2-0.9,0.3-1.8,0.3-2.7c-0.3-8-0.3-16-0.1-24
					s0.4-16.2,0.7-24.6c-0.1-1-0.5-2.2-1-3.5s-1.2-2.5-1.9-3.5c2.2-0.6,4.8-1.1,7.8-1.4c3-0.3,6.4-0.5,10.1-0.5
					c8.7,0,15.1,1.6,19.3,4.7C99.4,102.6,101.5,107.8,101.5,114.9z M75.8,105.3c-0.2,4.2-0.3,8-0.4,11.4s-0.1,6.8-0.1,10.1
					c1.8-0.3,3.5-0.9,4.9-1.8s2.6-1.9,3.6-3.1s1.7-2.6,2.3-4c0.5-1.4,0.7-2.9,0.7-4.3c-0.1-2.9-1.1-5-3-6.5S79.3,105,75.8,105.3z"/>
				<path class="st2" d="M108.9,151.1c0-3.2,0-6.3,0-9.4c0-3.1,0-6.3,0.1-9.6c0.1-3.4,0.1-7.2,0.2-11.5c0-4.2,0.1-8.3,0.1-12.3
					c0-1.9-0.1-3.8-0.2-5.8s-0.5-4.4-1.2-7.1c3.1-0.1,6.3-0.2,9.4-0.2s6.4,0.1,9.9,0.4c0.9,2.6,1.7,5,2.4,7.1s1.4,4.2,2,6.2
					c0.7,2,1.4,3.9,2,5.9c0.7,1.9,1.4,4,2.3,6.2c1.8-4.3,3.7-8.7,5.6-13.1c2-4.4,4.1-8.8,6.3-13.1c5.7-0.4,11.8-0.3,18.3,0.4
					c-1.4,2.9-2.1,5.8-2.3,8.8c-0.2,4.7-0.3,9.4-0.4,14.1c-0.1,4.7-0.1,9.5-0.1,14.3c0,2.8,0,5.6,0,8.4c0,2.8,0,5.7,0.1,8.5
					c0,1.2,0.2,2.5,0.5,4s0.9,3,1.6,4.5c-2.2,0.2-5,0.4-8.4,0.5s-6.9,0.1-10.5,0c1-2,1.6-4.2,1.7-6.6c0.1-2.5,0.2-5,0.2-7.7
					c0-1.3,0-2.6-0.1-4c0-1.4-0.1-3-0.2-4.7c-0.1-1.7-0.1-3.7-0.2-5.8c0-2.2-0.1-4.6-0.2-7.5c-1.8,4.7-3.7,9.5-5.7,14.6
					c-1.9,5.1-3.9,10.2-5.9,15.5c-0.5,0.3-1.2,0.4-1.8,0.4c-0.7,0-1.3-0.2-1.9-0.4c-1.6-3.5-3.3-7.8-5.1-13
					c-1.8-5.2-3.6-10.8-5.5-16.7c-0.1,4.4-0.2,8.8-0.2,13.4c0,4.6,0.1,9.2,0.3,13.8c0.1,1.4,0.2,2.7,0.5,3.9
					c0.2,1.2,0.8,2.7,1.8,4.4c-1.6,0.2-3.2,0.4-4.6,0.5s-2.8,0.2-4.2,0.2c-1.4,0-2.7,0-4.1,0c-1.4-0.1-2.8-0.2-4.3-0.4
					c0.8-1.3,1.2-2.6,1.4-3.9C108.8,153.3,108.9,152.1,108.9,151.1z"/>
				<path class="st2" d="M189.3,137.5c-2.1-5.3-4.6-10.8-7.3-16.6c-2.8-5.8-5.5-11.4-8.2-16.9c-0.5-1.1-1.3-2.4-2.2-3.9
					s-2-2.8-3.4-3.7c3.2-0.7,6.6-1.1,10.3-1.4s7.1-0.4,10.4-0.3c-0.4,1.1-0.6,2-0.6,2.7c0,0.8,0.1,1.6,0.4,2.5
					c0.3,0.9,0.6,1.8,1.1,2.8c0.8,1.6,1.4,3.2,2,4.6c0.6,1.5,1.2,2.9,1.8,4.4s1.2,3,1.9,4.6c0.6,1.6,1.3,3.4,2.1,5.3
					c1.3-3.7,2.5-7.1,3.6-10.1s2.2-5.9,3.3-8.7c0.3-1,0.7-2.2,1.1-3.5c0.4-1.3,0.4-2.9-0.1-4.8c3.1-0.1,6.1,0,9,0.3
					c2.9,0.2,5.7,0.7,8.3,1.3c-1.3,1-2.3,2.1-3,3.4c-0.7,1.2-1.2,2.3-1.5,3.3c-1,2.5-2.1,5.1-3.1,7.7c-1.1,2.6-2.1,5.4-3.2,8.2
					c-1.1,2.8-2.2,5.8-3.4,9c-1.2,3.1-2.4,6.5-3.7,10.1c-0.1,1.9-0.1,3.7-0.2,5.5c0,1.7-0.1,3.3-0.1,4.6s-0.1,2.4-0.1,3.2
					s0,1.3,0,1.4c0,0.8,0.1,1.8,0.3,2.8s0.6,2.1,1.3,3.3c-3.3,0.2-6.6,0.3-9.7,0.2c-3.1,0-6.4-0.3-9.8-0.8c0.8-1.5,1.5-3,1.9-4.5
					s0.7-3.1,0.9-4.7c0.1-1.6,0.2-3.4,0.1-5.3C189.5,141.7,189.4,139.7,189.3,137.5z"/>
			</g>
		</g>
	</g>
</g>
</svg>
